REM MD5 742c23fa2f24950f8f80ae2bc1e031cf
FILE "Euro Demo 08-98 (Germany).bin" BINARY
  TRACK 01 MODE2/2352
    INDEX 01 00:00:00
  TRACK 02 AUDIO
    INDEX 00 47:51:54
    INDEX 01 47:53:54
  TRACK 03 AUDIO
    INDEX 00 50:53:51
    INDEX 01 50:55:51
  TRACK 04 AUDIO
    INDEX 00 54:55:52
    INDEX 01 54:57:52
  TRACK 05 AUDIO
    INDEX 00 57:29:32
    INDEX 01 57:31:32
REM LEADOUT 60:32:63
